<?xml version="1.0" encoding="utf-8"?>
<!-- Generator: Adobe Illustrator 27.5.0, SVG Export Plug-In . SVG Version: 6.00 Build 0)  -->
<svg version="1.1" xmlns="http://www.w3.org/2000/svg" xmlns:xlink="http://www.w3.org/1999/xlink" x="0px" y="0px"
	 viewBox="0 0 3710 3710" style="enable-background:new 0 0 3710 3710;" xml:space="preserve">
<g id="Background">
	<g>
		<g>
			<rect style="fill:#FFFFFF;" width="3710" height="3710"/>
		</g>
	</g>
</g>
<g id="Illustration">
	<g>
		<linearGradient id="SVGID_1_" gradientUnits="userSpaceOnUse" x1="3599.1301" y1="4053.2405" x2="1130.5095" y2="987.3684">
			<stop  offset="0" style="stop-color:#B37CFF"/>
			<stop  offset="1" style="stop-color:#F895E7"/>
		</linearGradient>
		<path style="opacity:0.3;fill:url(#SVGID_1_);" d="M2919.997,2844.171c-56.703,59.695-110.355,98.191-152.745,128.606
			c-498.28,357.521-1087.877,253.306-1213.183,227.855c-185.038-37.582-542.711-110.228-801.303-414.326
			c-391.228-460.076-330.308-1184.912-26.845-1663.387c55.508-87.521,348.718-573.284,944.666-651.185
			c360.661-47.145,781.076,47.941,1085.529,303.012C3395.189,1310.163,3349.694,2391.8,2919.997,2844.171z"/>
		<g>
			<g style="opacity:0.58;">
				
					<linearGradient id="SVGID_00000144329593520295208560000005747237868831396781_" gradientUnits="userSpaceOnUse" x1="-1435.1116" y1="2244.9573" x2="-584.155" y2="672.1566" gradientTransform="matrix(-1 -0.0027 -0.0027 1 163.4473 359.0987)">
					<stop  offset="0" style="stop-color:#B37CFF"/>
					<stop  offset="1" style="stop-color:#F895E7"/>
				</linearGradient>
				<path style="fill:url(#SVGID_00000144329593520295208560000005747237868831396781_);" d="M1743.014,2407.996
					c0,0-316.766-1110.916-912.336-1694.597c-40.036-39.236-110.152-19.586-123.485,34.778
					C618.036,1111.7,461.083,2208.347,1743.014,2407.996z"/>
				<path style="opacity:0.5;fill:#FFFFFF;" d="M1623.985,2341.585c2.949,2.535-0.679,6.983-3.963,4.859
					c-121.057-78.289-592.22-469.522-790.05-1288.441c-0.635-2.63,3.39-3.859,4.261-1.295
					C898.336,1245.569,1157.678,1940.75,1623.985,2341.585z"/>
			</g>
			<g style="opacity:0.79;">
				
					<linearGradient id="SVGID_00000031202369671778552440000001493869014000025011_" gradientUnits="userSpaceOnUse" x1="816.2131" y1="173.6203" x2="1982.1011" y2="2539.6912">
					<stop  offset="0" style="stop-color:#A737D5"/>
					<stop  offset="1" style="stop-color:#EF497A"/>
				</linearGradient>
				<path style="fill:url(#SVGID_00000031202369671778552440000001493869014000025011_);" d="M1809.552,2054.037
					c0,0-140.228-994.967-542.739-1562.47c-27.058-38.149-82.598-28.444-97.831,17.24
					C1067.124,814.284,845.674,1747.504,1809.552,2054.037z"/>
				<path style="opacity:0.5;fill:#FFFFFF;" d="M1724.472,1984.122c2.026,2.503-1.165,5.976-3.485,3.794
					c-85.538-80.412-410.477-468.304-486.509-1198.03c-0.244-2.344,2.954-2.988,3.384-0.677
					C1269.557,959.426,1404.14,1588.421,1724.472,1984.122z"/>
			</g>
		</g>
		<g>
			<g>
				<g>
					
						<linearGradient id="SVGID_00000081607791028339284870000007865590661292172188_" gradientUnits="userSpaceOnUse" x1="1916.1393" y1="788.3228" x2="2687.4045" y2="788.3228">
						<stop  offset="0" style="stop-color:#2B3582"/>
						<stop  offset="1" style="stop-color:#150E42"/>
					</linearGradient>
					<path style="fill:url(#SVGID_00000081607791028339284870000007865590661292172188_);" d="M1924.628,1113.479
						c-4.508,0-8.231-3.583-8.372-8.12c-0.044-1.445-3.99-146.131,38.027-295.959c24.792-88.403,60.508-161.4,106.156-216.962
						c57.478-69.964,130.797-112.276,217.921-125.759c76.535-11.844,144.586,6.249,202.26,53.783
						c79.172,65.248,138.04,183.559,174.97,351.648c27.362,124.532,31.766,231.598,31.807,232.665
						c0.18,4.624-3.424,8.518-8.05,8.698c-4.661,0.255-8.518-3.426-8.698-8.05c-0.164-4.2-18.435-421.848-200.705-572.039
						c-53.823-44.353-117.42-61.227-189.022-50.141c-151.054,23.376-255.521,134.636-310.501,330.683
						c-41.332,147.381-37.456,289.495-37.412,290.913c0.142,4.627-3.491,8.493-8.117,8.637
						C1924.805,1113.477,1924.717,1113.479,1924.628,1113.479z"/>
					
						<linearGradient id="SVGID_00000126308876439802421500000016301850555239437995_" gradientUnits="userSpaceOnUse" x1="2637.9131" y1="1072.4357" x2="1303.7838" y2="4022.2751">
						<stop  offset="0" style="stop-color:#C32B78"/>
						<stop  offset="1" style="stop-color:#593092"/>
					</linearGradient>
					<path style="fill:url(#SVGID_00000126308876439802421500000016301850555239437995_);" d="M1223.85,2912.209l285.868-1938.018
						l1073.897-17.75l346.132,2063.481H1316.839C1259.466,3019.922,1215.478,2968.969,1223.85,2912.209z"/>
					
						<linearGradient id="SVGID_00000075134147848344539820000008292188050607057320_" gradientUnits="userSpaceOnUse" x1="3877.2942" y1="1180.9363" x2="2482.825" y2="2300.5325">
						<stop  offset="0" style="stop-color:#C32B78"/>
						<stop  offset="1" style="stop-color:#593092"/>
					</linearGradient>
					<path style="fill:url(#SVGID_00000075134147848344539820000008292188050607057320_);" d="M2792.182,974.191l-208.567-17.75
						l346.132,2063.481h207.056c41.98,0,73.354-38.581,64.796-79.679L2792.182,974.191z"/>
					
						<linearGradient id="SVGID_00000163764894184580952110000006546644493573848241_" gradientUnits="userSpaceOnUse" x1="1685.3845" y1="783.8854" x2="2456.6479" y2="783.8854">
						<stop  offset="0" style="stop-color:#2B3582"/>
						<stop  offset="1" style="stop-color:#150E42"/>
					</linearGradient>
					<path style="fill:url(#SVGID_00000163764894184580952110000006546644493573848241_);" d="M1693.873,1109.042
						c-4.508,0-8.231-3.583-8.372-8.12c-0.044-1.445-3.99-146.131,38.027-295.959c24.792-88.404,60.508-161.4,106.154-216.962
						c57.478-69.964,130.797-112.274,217.921-125.758c76.54-11.845,144.587,6.249,202.262,53.783
						c79.172,65.247,138.04,183.559,174.97,351.647c27.36,124.532,31.765,231.598,31.806,232.665c0.18,4.624-3.424,8.518-8.05,8.698
						c-4.619,0.244-8.518-3.427-8.698-8.05c-0.164-4.2-18.433-421.848-200.704-572.039
						c-53.825-44.352-117.423-61.223-189.024-50.139c-151.052,23.376-255.519,134.634-310.5,330.681
						c-41.332,147.381-37.456,289.495-37.412,290.913c0.142,4.627-3.491,8.493-8.117,8.637
						C1694.05,1109.04,1693.962,1109.042,1693.873,1109.042z"/>
				</g>
			</g>
			<g>
				<g>
					
						<linearGradient id="SVGID_00000135680920195176161100000014442234245438902174_" gradientUnits="userSpaceOnUse" x1="2619.8345" y1="1541.134" x2="1877.2341" y2="1056.8302" gradientTransform="matrix(0.9875 0.1578 -0.1578 0.9875 199.6188 -690.5923)">
						<stop  offset="0" style="stop-color:#FDF53F"/>
						<stop  offset="1" style="stop-color:#D93C65"/>
					</linearGradient>
					<path style="fill:url(#SVGID_00000135680920195176161100000014442234245438902174_);" d="M2759.408,1404.822
						c1.799-3.975,1.894-8.51,0.273-12.56c-24.166-60.357-110.855-276.463-114.281-279.148
						c-3.983-3.121-128.243-121.378-128.243-121.378c-22.895-21.775-31.363-2.08-31.363-2.08l-58.661,203.095l115.201,277.877
						c3.258,7.859,12.095,11.797,20.117,8.964l187.702-66.275C2754.267,1411.865,2757.609,1408.797,2759.408,1404.822z
						 M2498.145,1065.216c-9.897-7.755-11.634-22.065-3.878-31.962c7.755-9.897,22.065-11.634,31.962-3.878
						s11.633,22.065,3.878,31.962C2522.352,1071.234,2508.042,1072.971,2498.145,1065.216z"/>
					<g>
						
							<linearGradient id="SVGID_00000183238481449345066860000009019102701266541227_" gradientUnits="userSpaceOnUse" x1="2774.1499" y1="2295.6379" x2="2666.5266" y2="1578.1516" gradientTransform="matrix(0.9875 0.1578 -0.1578 0.9875 199.6188 -690.5923)">
							<stop  offset="0" style="stop-color:#FDF53F"/>
							<stop  offset="1" style="stop-color:#D93C65"/>
						</linearGradient>
						<path style="fill:url(#SVGID_00000183238481449345066860000009019102701266541227_);" d="M2557.769,1250.862
							c16.087,31.117,10.808,53.706-4.08,61.404c-15.222,7.87-35.821-1.629-50.666-29.931c-14.446-27.937-12.08-52.472,4.647-61.122
							C2524.901,1212.305,2544.03,1224.289,2557.769,1250.862z M2586.08,1374.095l-15.846-185.228l11.709-6.055l15.845,185.229
							L2586.08,1374.095z M2518.276,1273.296c8.641,17.12,19.617,27.276,27.812,23.038c8.199-4.239,6.104-18.123-3.172-36.064
							c-8.455-16.354-18.61-27.797-27.476-23.213C2507.076,1241.381,2509.703,1256.716,2518.276,1273.296z M2664.414,1273.44
							c15.97,30.886,10.974,53.618-4.081,61.402c-15.054,7.783-35.819-1.63-50.615-30.246c-14.326-27.708-12.079-52.471,4.48-61.033
							C2631.429,1234.654,2650.676,1246.866,2664.414,1273.44z M2624.923,1295.871c8.522,16.893,19.614,27.278,27.81,23.039
							c8.364-4.323,6.106-18.124-3.171-36.065c-8.573-16.58-18.612-27.796-27.476-23.213
							C2613.721,1263.957,2616.351,1279.292,2624.923,1295.871z"/>
					</g>
				</g>
				<g>
					
						<linearGradient id="SVGID_00000062891529726069535970000005822567399365999024_" gradientUnits="userSpaceOnUse" x1="2489.3552" y1="1320.0969" x2="2558.8706" y2="1320.0969" gradientTransform="matrix(0.9875 0.1578 -0.1578 0.9875 199.6188 -690.5923)">
						<stop  offset="0" style="stop-color:#2C759E"/>
						<stop  offset="1" style="stop-color:#051042"/>
					</linearGradient>
					<path style="fill:url(#SVGID_00000062891529726069535970000005822567399365999024_);" d="M2508.377,1042.306
						c-2.188-0.35-4.059-1.972-4.615-4.258l0,0c-0.341-1.384-8.798-34.035-47.082-46.761c-2.97-0.988-4.577-4.196-3.591-7.165
						c0.987-2.971,4.194-4.583,7.166-3.591c44.438,14.773,54.134,53.227,54.524,54.856c0.73,3.043-1.146,6.103-4.189,6.833
						C2509.843,1042.4,2509.093,1042.421,2508.377,1042.306z"/>
				</g>
			</g>
		</g>
		<g>
			
				<linearGradient id="SVGID_00000173858237463714984180000015947975252458580132_" gradientUnits="userSpaceOnUse" x1="3279.7842" y1="1441.8364" x2="2160.0068" y2="3255.2786">
				<stop  offset="0" style="stop-color:#FDF53F"/>
				<stop  offset="1" style="stop-color:#D93C65"/>
			</linearGradient>
			<path style="fill:url(#SVGID_00000173858237463714984180000015947975252458580132_);" d="M2300.22,2904.469l480.708-920.935
				h-98.488c-18.161,0-28.149-21.115-16.63-35.155l512.339-624.437c22.205-27.064,66.069-9.899,64.007,25.047l-36.014,610.623
				c-2.062,34.956-33.058,61.009-67.847,57.027l-68.666-7.859l-476.959,1032.922c-12.416,26.889-39.332,44.107-68.95,44.107
				h-165.308L2300.22,2904.469z"/>
			
				<linearGradient id="SVGID_00000024000986349215709700000017812514577923216805_" gradientUnits="userSpaceOnUse" x1="2595.054" y1="2590.6138" x2="1696.5909" y2="2643.4653">
				<stop  offset="0" style="stop-color:#FDF53F"/>
				<stop  offset="1" style="stop-color:#D93C65"/>
			</linearGradient>
			<path style="fill:url(#SVGID_00000024000986349215709700000017812514577923216805_);" d="M1902.778,2258.575l339.37,753.868
				c20.102,44.652,64.519,73.366,113.486,73.366h174.953c23.213,0,44.599-12.592,55.86-32.891l6.222-11.217l0,0
				c-18.797,0-36.008-10.539-44.553-27.281l-452.17-885.962L1902.778,2258.575z"/>
			
				<linearGradient id="SVGID_00000183243460948915923440000000461215456695854523_" gradientUnits="userSpaceOnUse" x1="2198.3984" y1="2550.4492" x2="1164.5028" y2="2570.2686">
				<stop  offset="0" style="stop-color:#FDF53F"/>
				<stop  offset="1" style="stop-color:#D93C65"/>
			</linearGradient>
			<path style="fill:url(#SVGID_00000183243460948915923440000000461215456695854523_);" d="M2141.618,2217.948L2141.618,2217.948
				c-34.031-26.873-83.753-18.973-107.779,17.125l-498.969,749.664c-39.963,60.042-107.309,96.117-179.435,96.117h-70.211
				l-57.14-164.602c0,0,463.869-711.259,583.429-818.852c0,0,119.065-107.309,236.46-26.176
				c31.015,21.435,54.563,52.027,68.946,86.877L2141.618,2217.948z"/>
			
				<linearGradient id="SVGID_00000168818081570120402310000004951405539426029964_" gradientUnits="userSpaceOnUse" x1="1384.1465" y1="3107.7249" x2="1007.6019" y2="2587.4993">
				<stop  offset="0" style="stop-color:#FDF53F"/>
				<stop  offset="0.2814" style="stop-color:#F3C14A"/>
				<stop  offset="1" style="stop-color:#D93C65"/>
			</linearGradient>
			<path style="fill:url(#SVGID_00000168818081570120402310000004951405539426029964_);" d="M685.387,2473.559
				c0,0,83.523-104.401,245.375-120.641c0,0,76.872,26.19,230.019,300.609c153.147,274.42,254.801,399.56,374.088,331.209
				l-9.876,16.397c-32.546,54.039-91.02,87.081-154.103,87.081h-65.974c-72.637,0-140.825-34.922-183.243-93.888
				C1002.48,2828.631,758.607,2499.281,685.387,2473.559z"/>
			<path style="fill:#FFFFFF;" d="M3184.349,1542.333c-0.19,0-0.38-0.01-0.573-0.033c-2.76-0.313-4.742-2.802-4.429-5.562
				l3.378-29.815c0.311-2.76,2.805-4.77,5.562-4.429c2.76,0.313,4.742,2.802,4.429,5.562l-3.378,29.815
				C3189.048,1540.438,3186.873,1542.333,3184.349,1542.333z"/>
			<path style="fill:#FFFFFF;" d="M2756.661,1918.698c-1.071,0-2.149-0.34-3.064-1.044c-2.2-1.692-2.611-4.85-0.918-7.051
				l423.064-549.714c4.99-6.485,13.441-8.778,21.029-5.712c7.586,3.069,12.064,10.593,11.143,18.725l-7.465,65.893
				c-0.313,2.76-2.801,4.761-5.562,4.429c-2.76-0.313-4.742-2.802-4.429-5.562l7.465-65.893c0.501-4.426-2.215-7.174-4.924-8.269
				c-2.704-1.097-6.568-1.008-9.287,2.524l-423.063,549.714C2759.658,1918.024,2758.169,1918.698,2756.661,1918.698z"/>
			<path style="fill:#FFFFFF;" d="M1796.891,2494.983c-0.967,0-1.944-0.278-2.807-0.859c-2.303-1.553-2.91-4.679-1.357-6.981
				l218.8-324.323c7.906-11.716,21.021-18.081,35.132-17.003c14.093,1.069,26.115,9.334,32.162,22.109
				c1.188,2.509,0.116,5.508-2.395,6.696c-2.508,1.19-5.506,0.116-6.696-2.395c-4.48-9.467-13.39-15.592-23.833-16.384
				c-10.444-0.781-20.176,3.917-26.033,12.6l-218.8,324.322C1800.093,2494.208,1798.507,2494.983,1796.891,2494.983z"/>
			<path style="fill:#FFFFFF;" d="M1740.033,2579.264c-0.967,0-1.945-0.278-2.807-0.859c-2.303-1.553-2.909-4.68-1.357-6.981
				l14.03-20.795c1.555-2.303,4.678-2.91,6.981-1.357c2.303,1.553,2.909,4.68,1.357,6.981l-14.03,20.795
				C1743.235,2578.488,1741.649,2579.264,1740.033,2579.264z"/>
		</g>
		<g>
			<g>
				<g>
					
						<linearGradient id="SVGID_00000157290420818394113930000010220946473286284442_" gradientUnits="userSpaceOnUse" x1="876.9798" y1="2962.4995" x2="1646.6877" y2="978.3616" gradientTransform="matrix(1 -0.0023 0.0023 1 -2.4796 -0.3106)">
						<stop  offset="0" style="stop-color:#2B3582"/>
						<stop  offset="1" style="stop-color:#150E42"/>
					</linearGradient>
					<path style="fill:url(#SVGID_00000157290420818394113930000010220946473286284442_);" d="M1750.466,3123.019
						c-0.388,38.285-33.279,69.326-73.476,69.413l-971.7,2.117c-40.487,0.088-74.095-30.93-75.057-69.367l-45.279-1809.859
						c-1.077-43.033,32.906-77.833,75.892-77.627l1031.447,4.931c42.659,0.204,76.879,35.182,76.444,78.027L1750.466,3123.019z"/>
					
						<linearGradient id="SVGID_00000093860803462836193640000010955381638210734266_" gradientUnits="userSpaceOnUse" x1="1134.1176" y1="2509.157" x2="1418.4515" y2="146.2361">
						<stop  offset="0" style="stop-color:#53D8FF"/>
						<stop  offset="1" style="stop-color:#3840F7"/>
					</linearGradient>
					<path style="fill:url(#SVGID_00000093860803462836193640000010955381638210734266_);" d="M1662.882,1425.109
						c0.29-41.351-33.637-75.099-75.789-75.284l-818.653-3.599c-42.412-0.186-76.066,33.38-75.158,74.88l33.654,1538.811
						c0.824,37.691,34.159,68.129,74.445,68.065l777.753-1.234c40.053-0.063,72.727-30.506,72.99-68.075L1662.882,1425.109z"/>
					
						<linearGradient id="SVGID_00000038375175627192797260000001150863401411588518_" gradientUnits="userSpaceOnUse" x1="1184.73" y1="1005.4235" x2="1179.7644" y2="1308.3182">
						<stop  offset="0" style="stop-color:#8D55D1"/>
						<stop  offset="0.9964" style="stop-color:#1C2873"/>
					</linearGradient>
					<path style="fill:url(#SVGID_00000038375175627192797260000001150863401411588518_);" d="M1301.117,1291.27
						c0.021,8.023-6.432,14.495-14.413,14.459l-213.053-0.965c-7.998-0.036-14.561-6.574-14.658-14.607l0,0
						c-0.097-8.038,6.316-14.528,14.323-14.49l213.295,0.996C1294.602,1276.698,1301.096,1283.241,1301.117,1291.27
						L1301.117,1291.27z"/>
				</g>
			</g>
			<g>
				<g>
					
						<linearGradient id="SVGID_00000009564991688486930830000004655431941749767071_" gradientUnits="userSpaceOnUse" x1="627.7492" y1="1725.6305" x2="627.7492" y2="3044.5952">
						<stop  offset="0" style="stop-color:#C32B78"/>
						<stop  offset="1" style="stop-color:#593092"/>
					</linearGradient>
					<path style="fill:url(#SVGID_00000009564991688486930830000004655431941749767071_);" d="M663.174,1346.195
						c-5.323,0-10.278,1.977-13.128,6.473c-59.907,94.537-119.822,192.442-179.729,282.858c58.878,0,117.754,0,176.629,0
						c46.077-90.416,92.157-191.166,138.234-289.332C744.509,1346.195,703.841,1346.195,663.174,1346.195z"/>
					
						<linearGradient id="SVGID_00000134221538524660397410000000427802619722368400_" gradientUnits="userSpaceOnUse" x1="781.5693" y1="1500.7128" x2="790.8486" y2="1840.3282">
						<stop  offset="0" style="stop-color:#FDF53F"/>
						<stop  offset="1" style="stop-color:#D93C65"/>
					</linearGradient>
					<path style="fill:url(#SVGID_00000134221538524660397410000000427802619722368400_);" d="M823.575,1637.707
						c-58.876,0-117.752,0-176.628,0c46.077-96.947,92.157-193.895,138.234-290.842c43.517,0,87.033,0,130.551,0
						C885.014,1443.812,854.295,1540.76,823.575,1637.707z"/>
					<g>
						
							<linearGradient id="SVGID_00000183965850315821132650000008994054711250667455_" gradientUnits="userSpaceOnUse" x1="934.9305" y1="1728.2808" x2="934.9305" y2="3054.1301">
							<stop  offset="0" style="stop-color:#C32B78"/>
							<stop  offset="1" style="stop-color:#593092"/>
						</linearGradient>
						<path style="fill:url(#SVGID_00000183965850315821132650000008994054711250667455_);" d="M1000.205,1637.707
							c-58.876,0-117.753,0-176.63,0c30.72-96.947,61.439-193.895,92.157-290.842c43.518,0,87.035,0,130.554,0
							C1030.925,1443.812,1015.565,1540.76,1000.205,1637.707z"/>
					</g>
					
						<linearGradient id="SVGID_00000064325264346432743030000004488048219219563177_" gradientUnits="userSpaceOnUse" x1="1088.7524" y1="1500.78" x2="1098.1118" y2="1843.3252">
						<stop  offset="0" style="stop-color:#FDF53F"/>
						<stop  offset="1" style="stop-color:#D93C65"/>
					</linearGradient>
					<path style="fill:url(#SVGID_00000064325264346432743030000004488048219219563177_);" d="M1176.835,1637.707
						c-58.876,0-117.752,0-176.63,0c15.36-96.947,30.72-193.895,46.081-290.842c43.517,0,87.033,0,130.549,0
						C1176.835,1443.812,1176.835,1540.76,1176.835,1637.707z"/>
					<g>
						
							<linearGradient id="SVGID_00000061472779522504917490000003876563215652536250_" gradientUnits="userSpaceOnUse" x1="1265.1505" y1="1728.2808" x2="1265.1505" y2="3054.1301">
							<stop  offset="0" style="stop-color:#C32B78"/>
							<stop  offset="1" style="stop-color:#593092"/>
						</linearGradient>
						<path style="fill:url(#SVGID_00000061472779522504917490000003876563215652536250_);" d="M1353.465,1637.707
							c-58.876,0-117.752,0-176.63,0c0-96.947,0-193.895,0-290.842c43.518,0,87.031,0,130.553,0
							C1322.746,1443.812,1338.106,1540.76,1353.465,1637.707z"/>
					</g>
					
						<linearGradient id="SVGID_00000119833929792664808310000013682784258379682970_" gradientUnits="userSpaceOnUse" x1="1418.9587" y1="1500.2183" x2="1428.3981" y2="1845.6931">
						<stop  offset="0" style="stop-color:#FDF53F"/>
						<stop  offset="1" style="stop-color:#D93C65"/>
					</linearGradient>
					<path style="fill:url(#SVGID_00000119833929792664808310000013682784258379682970_);" d="M1530.096,1637.707
						c-58.879,0-117.753,0-176.63,0c-15.358-96.947-30.718-193.895-46.077-290.842c43.517,0,87.033,0,130.551,0
						C1468.657,1443.812,1499.376,1540.76,1530.096,1637.707z"/>
					<g>
						
							<linearGradient id="SVGID_00000094593969652699384590000009387748181263058313_" gradientUnits="userSpaceOnUse" x1="1572.3319" y1="1728.2808" x2="1572.3319" y2="3054.1301">
							<stop  offset="0" style="stop-color:#C32B78"/>
							<stop  offset="1" style="stop-color:#593092"/>
						</linearGradient>
						<path style="fill:url(#SVGID_00000094593969652699384590000009387748181263058313_);" d="M1706.724,1637.707
							c-58.876,0-117.752,0-176.629,0c-30.719-96.947-61.439-193.895-92.157-290.842c43.52,0,87.033,0,130.554,0
							C1614.568,1443.812,1660.644,1540.76,1706.724,1637.707z"/>
					</g>
					
						<linearGradient id="SVGID_00000049197597510115223350000008945478748421161124_" gradientUnits="userSpaceOnUse" x1="1726.1406" y1="1498.8203" x2="1735.6119" y2="1845.4677">
						<stop  offset="0" style="stop-color:#FDF53F"/>
						<stop  offset="1" style="stop-color:#D93C65"/>
					</linearGradient>
					<path style="fill:url(#SVGID_00000049197597510115223350000008945478748421161124_);" d="M1703.624,1352.669
						c-2.85-4.497-7.804-6.474-13.127-6.474c-40.668,0-81.336,0-122.003,0c46.075,98.166,92.15,198.916,138.231,289.332
						c58.873,0,117.749,0,176.628,0C1823.446,1545.111,1763.531,1447.207,1703.624,1352.669z"/>
				</g>
				<g>
					
						<linearGradient id="SVGID_00000154415878883892553430000009983449079610205058_" gradientUnits="userSpaceOnUse" x1="558.6429" y1="1550.8213" x2="557.0146" y2="1946.4604">
						<stop  offset="0" style="stop-color:#C32B78"/>
						<stop  offset="1" style="stop-color:#593092"/>
					</linearGradient>
					<path style="fill:url(#SVGID_00000154415878883892553430000009983449079610205058_);" d="M467.774,1635.527v50.381
						c0,41.962,42.632,73.618,91.277,73.618h1.894c48.646,0,87.661-31.656,87.661-73.618v-50.381H467.774z"/>
					
						<linearGradient id="SVGID_00000165947585706739169060000016328751165428146609_" gradientUnits="userSpaceOnUse" x1="905.2582" y1="735.9446" x2="623.4744" y2="2272.9407">
						<stop  offset="0" style="stop-color:#FDF53F"/>
						<stop  offset="1" style="stop-color:#D93C65"/>
					</linearGradient>
					<path style="fill:url(#SVGID_00000165947585706739169060000016328751165428146609_);" d="M648.607,1635.527v50.381
						c0,41.962,37.6,73.618,85.424,73.618h1.862c47.825,0,85.796-31.656,85.796-73.618v-50.381H648.607z"/>
				</g>
				<g>
					
						<linearGradient id="SVGID_00000078759474431552261850000011456867176888992672_" gradientUnits="userSpaceOnUse" x1="911.2659" y1="1550.8311" x2="909.6378" y2="1946.4492">
						<stop  offset="0" style="stop-color:#C32B78"/>
						<stop  offset="1" style="stop-color:#593092"/>
					</linearGradient>
					<path style="fill:url(#SVGID_00000078759474431552261850000011456867176888992672_);" d="M821.689,1635.527v50.381
						c0,41.962,41.649,73.618,90.294,73.618h1.894c48.646,0,86.061-31.656,86.061-73.618v-50.381H821.689z"/>
					
						<linearGradient id="SVGID_00000120540070528817612700000015602994211296305309_" gradientUnits="userSpaceOnUse" x1="1246.4019" y1="798.4871" x2="964.6187" y2="2335.4797">
						<stop  offset="0" style="stop-color:#FDF53F"/>
						<stop  offset="1" style="stop-color:#D93C65"/>
					</linearGradient>
					<path style="fill:url(#SVGID_00000120540070528817612700000015602994211296305309_);" d="M999.938,1635.527v50.381
						c0,41.962,39.2,73.618,87.025,73.618h1.862c47.825,0,86.779-31.656,86.779-73.618v-50.381H999.938z"/>
				</g>
				<g>
					
						<linearGradient id="SVGID_00000111166996563647640400000007050560687110917004_" gradientUnits="userSpaceOnUse" x1="1263.8889" y1="1550.8408" x2="1262.2609" y2="1946.4381">
						<stop  offset="0" style="stop-color:#C32B78"/>
						<stop  offset="1" style="stop-color:#593092"/>
					</linearGradient>
					<path style="fill:url(#SVGID_00000111166996563647640400000007050560687110917004_);" d="M1175.604,1635.527v50.381
						c0,41.962,40.665,73.618,89.311,73.618h1.894c48.646,0,84.46-31.656,84.46-73.618v-50.381H1175.604z"/>
					
						<linearGradient id="SVGID_00000139999610458139781670000014087246058644176256_" gradientUnits="userSpaceOnUse" x1="1587.5458" y1="861.0303" x2="1305.7611" y2="2398.031">
						<stop  offset="0" style="stop-color:#FDF53F"/>
						<stop  offset="1" style="stop-color:#D93C65"/>
					</linearGradient>
					<path style="fill:url(#SVGID_00000139999610458139781670000014087246058644176256_);" d="M1351.269,1635.527v50.381
						c0,41.962,40.8,73.618,88.625,73.618h1.862c47.825,0,87.762-31.656,87.762-73.618v-50.381H1351.269z"/>
				</g>
				<g>
					
						<linearGradient id="SVGID_00000170250079984625126700000005692172367837064842_" gradientUnits="userSpaceOnUse" x1="1619.0953" y1="1550.8256" x2="1617.467" y2="1946.4695">
						<stop  offset="0" style="stop-color:#C32B78"/>
						<stop  offset="1" style="stop-color:#593092"/>
					</linearGradient>
					<path style="fill:url(#SVGID_00000170250079984625126700000005692172367837064842_);" d="M1529.518,1635.527v50.381
						c0,41.962,39.683,73.618,88.328,73.618h1.894c48.646,0,88.027-31.656,88.027-73.618v-50.381H1529.518z"/>
					
						<linearGradient id="SVGID_00000167363890577411522990000007703436592898551702_" gradientUnits="userSpaceOnUse" x1="1929.9722" y1="923.8084" x2="1648.1876" y2="2460.8086">
						<stop  offset="0" style="stop-color:#FDF53F"/>
						<stop  offset="1" style="stop-color:#D93C65"/>
					</linearGradient>
					<path style="fill:url(#SVGID_00000167363890577411522990000007703436592898551702_);" d="M1707.767,1635.527v50.381
						c0,41.962,37.234,73.618,85.058,73.618h1.862c47.825,0,86.162-31.656,86.162-73.618v-50.381H1707.767z"/>
				</g>
			</g>
			<g>
				<path style="fill:#FFFFFF;" d="M1454.973,1983.531c-3.285-4.038-8.436-5.714-13.901-5.599l-497.545,10.437l-12.568-39.923
					c-1.747-5.562-6.977-9.124-12.892-8.968l-68.312,1.795c-7.325,0.192-13.257,5.286-13.257,12.597
					c0,7.311,5.932,12.108,13.257,11.935l58.377-1.379l105.631,337.539c1.778,5.681,7.112,9.589,13.158,9.67l349.224,4.688
					c8.196,0.11,14.849-5.033,14.849-12.783c0-7.748-6.654-13.054-14.849-13.143l-339.034-3.655l-27.21-87.639l372.57,0.565
					c7.628,0.012,14.352-4.981,16.49-11.903l58.802-190.127C1459.296,1992.678,1458.262,1987.572,1454.973,1983.531z"/>
				<path style="fill:#FFFFFF;" d="M1078.009,2332.453c-28.734-0.447-51.98,21.917-51.98,49.851s23.246,51.269,51.98,52.023
					c28.907,0.76,52.555-21.595,52.555-49.838C1130.563,2356.247,1106.915,2332.903,1078.009,2332.453z M1078.009,2407.161
					c-13.43-0.314-24.329-11.206-24.329-24.279c0-13.074,10.899-23.509,24.329-23.262c13.467,0.248,24.454,11.141,24.454,24.282
					C1102.462,2397.042,1091.476,2407.476,1078.009,2407.161z"/>
				<path style="fill:#FFFFFF;" d="M1310.806,2336.072c-30.157-0.469-54.553,22.431-54.553,51.045
					c0,28.614,24.396,52.534,54.553,53.326c30.344,0.797,55.17-22.093,55.17-51.032S1341.15,2336.544,1310.806,2336.072z
					 M1310.806,2412.611c-14.095-0.33-25.534-11.494-25.534-24.886c0-13.394,11.439-24.079,25.534-23.82
					c14.136,0.26,25.669,11.426,25.669,24.89C1336.474,2402.258,1324.942,2412.942,1310.806,2412.611z"/>
			</g>
			<path style="opacity:0.7;fill:#FFFFFF;" d="M1498.005,2762.05H867.697c-5.523,0-10-4.477-10-10v-181.126c0-5.523,4.477-10,10-10
				h630.308c5.523,0,10,4.477,10,10v181.126C1508.005,2757.573,1503.528,2762.05,1498.005,2762.05z"/>
			<path style="opacity:0.7;fill:#FFFFFF;" d="M1464.484,2909.538H887.81c-5.523,0-10-4.477-10-10v-73.859c0-5.523,4.477-10,10-10
				h576.674c5.523,0,10,4.477,10,10v73.859C1474.484,2905.061,1470.007,2909.538,1464.484,2909.538z"/>
		</g>
		<g>
			
				<linearGradient id="SVGID_00000158024007973413909080000006004232378724673725_" gradientUnits="userSpaceOnUse" x1="-3516.7581" y1="1620.1046" x2="-3422.9692" y2="1855.3717" gradientTransform="matrix(-1 0 0 1 -1129.4081 0)">
				<stop  offset="0" style="stop-color:#2B3582"/>
				<stop  offset="1" style="stop-color:#150E42"/>
			</linearGradient>
			<path style="fill:url(#SVGID_00000158024007973413909080000006004232378724673725_);" d="M2331.739,1746.659
				c0,0-31.619,15.38-37.432,33.047c-4.665,14.176-39.626,16.003-43.08,43.883c-1.783,14.394-12.435,25.922-26.772,28.12
				c-35.707,5.473-90.736,24.015-99.541,86.011c-6.72,47.321,17.403,65.264,42.72,71.475c18.594,4.562,30.952,22.648,27.191,41.421
				c-3.608,18.006,1.772,38.822,32.967,55.282c69.904,36.886,139.714-87.386,139.714-87.386l14.307-216.986L2331.739,1746.659z"/>
			
				<linearGradient id="SVGID_00000181082608785384812600000001613350084630854281_" gradientUnits="userSpaceOnUse" x1="2795.2231" y1="1284.5403" x2="2359.4502" y2="2337.0986">
				<stop  offset="0" style="stop-color:#F9B776"/>
				<stop  offset="1" style="stop-color:#F47960"/>
			</linearGradient>
			<path style="fill:url(#SVGID_00000181082608785384812600000001613350084630854281_);" d="M2712.107,1695.218
				c0,0-139.573,220.766-305.542,263.407c0,0,32.34,92.109,57.301,102.651c0,0,204.188-170.372,256.662-334.688L2712.107,1695.218z"
				/>
			
				<linearGradient id="SVGID_00000119118068963333090460000016211239350983517884_" gradientUnits="userSpaceOnUse" x1="-3173.9065" y1="3126.3083" x2="-3094.3774" y2="3126.3083" gradientTransform="matrix(-1 0 0 1 -1129.4081 0)">
				<stop  offset="0" style="stop-color:#2B3582"/>
				<stop  offset="1" style="stop-color:#150E42"/>
			</linearGradient>
			<path style="fill:url(#SVGID_00000119118068963333090460000016211239350983517884_);" d="M2044.404,3107.235l-4.524,37.187
				c-0.858,7.055-6.412,12.633-13.473,13.44c-11.921,1.362-31.052,2.758-49.769,0.779c-8.216-0.868-13.549-9.188-11.047-17.061
				c4.563-14.356,12.911-35.906,24.946-48.587h41.252C2039.416,3092.992,2045.325,3099.664,2044.404,3107.235z"/>
			
				<linearGradient id="SVGID_00000113354823984952717330000010703814485548997037_" gradientUnits="userSpaceOnUse" x1="2396.6738" y1="3263.9604" x2="2316.2231" y2="2791.314">
				<stop  offset="0" style="stop-color:#F9B776"/>
				<stop  offset="1" style="stop-color:#F47960"/>
			</linearGradient>
			<path style="fill:url(#SVGID_00000113354823984952717330000010703814485548997037_);" d="M2367.506,2671.61l6.963,40.958
				c0,0-23.317,236.18-27.464,330.652c-0.65,14.812,3.181,29.448,10.955,42.073l40.544,65.84l-103.042-60.804l-2.051-12.574
				l16.868-23.193l-22.094-264.58c-1.298-15.543,1.909-31.131,9.238-44.899l21.314-40.04L2367.506,2671.61z"/>
			
				<linearGradient id="SVGID_00000048488624683274976490000010625028281681578885_" gradientUnits="userSpaceOnUse" x1="-3543.3926" y1="3111.7883" x2="-3414.708" y2="3111.7883" gradientTransform="matrix(-1 0 0 1 -1129.4081 0)">
				<stop  offset="0" style="stop-color:#2B3582"/>
				<stop  offset="1" style="stop-color:#150E42"/>
			</linearGradient>
			<path style="fill:url(#SVGID_00000048488624683274976490000010625028281681578885_);" d="M2405.289,3160.67h-32.883
				c-6.155,0-11.96-2.826-15.714-7.703c-10.251-13.32-31.49-39.307-41.646-39.986c-13.671-0.913-11.922,47.689-11.922,47.689h-7.663
				l-9.707-60.394c-2.442-15.196,5.115-30.249,18.76-37.369c0,0,3.125,23.112,20.071,33.335
				c16.945,10.223,68.957,46.833,68.957,46.833s6.371-0.908,13.365,0.356C2417.282,3145.306,2415.833,3160.67,2405.289,3160.67z"/>
			
				<linearGradient id="SVGID_00000115484689556272699850000009198862255928407727_" gradientUnits="userSpaceOnUse" x1="1864.5354" y1="3213.3711" x2="2166.2231" y2="2807.7683">
				<stop  offset="0" style="stop-color:#F9B776"/>
				<stop  offset="1" style="stop-color:#F47960"/>
			</linearGradient>
			<path style="fill:url(#SVGID_00000115484689556272699850000009198862255928407727_);" d="M2226.372,2691.063
				c0,0-136.597,259.112-158.311,318.271c-21.714,59.159-29.32,108.511-29.612,113.185c-0.455,7.303-9.538,14.307-34.575,14.307
				c-12.921,0-19.249-5.179-22.347-10.192c-2.644-4.277-2.78-9.629-0.552-14.137c7.901-15.991,32.977-67.094,42.263-90.272
				c11.088-27.673,34.938-153.085,48.019-196.689c13.08-43.604,27.866-90.903,84.828-134.472
				C2156.085,2691.063,2195.187,2652.765,2226.372,2691.063z"/>
			
				<linearGradient id="SVGID_00000090284712965409719630000017510958565665110189_" gradientUnits="userSpaceOnUse" x1="-3507.1313" y1="2091.0254" x2="-3449.9045" y2="2621.9658" gradientTransform="matrix(-1 0 0 1 -1129.4081 0)">
				<stop  offset="0" style="stop-color:#53D8FF"/>
				<stop  offset="1" style="stop-color:#3840F7"/>
			</linearGradient>
			<path style="fill:url(#SVGID_00000090284712965409719630000017510958565665110189_);" d="M2312.663,2266.496
				c35.236-149.308-54.027-233.755-54.027-233.755c56.323-54.064,158.943-78.665,158.943-78.665s97.922,71.59,86.306,127.625
				c-6.808,32.842-68.83,196.718-68.83,196.718S2377.704,2305.56,2312.663,2266.496z"/>
			
				<linearGradient id="SVGID_00000072970451377650780780000000238256866785644990_" gradientUnits="userSpaceOnUse" x1="-3191.8984" y1="2117.0908" x2="-3478.0347" y2="2574.9087" gradientTransform="matrix(-1 0 0 1 -1129.4081 0)">
				<stop  offset="0" style="stop-color:#53D8FF"/>
				<stop  offset="1" style="stop-color:#3840F7"/>
			</linearGradient>
			<path style="fill:url(#SVGID_00000072970451377650780780000000238256866785644990_);" d="M2234.54,2340.414
				c14.34-43.2,78.123-73.918,78.123-73.918c65.042,39.064,122.392,11.922,122.392,11.922s12.862,49.161,3.984,94.848
				c-8.877,45.687-64.571,339.302-64.571,339.302c-87.755,17.781-222.721-17.889-222.721-17.889
				C2207.644,2595.438,2220.2,2383.614,2234.54,2340.414z"/>
			
				<linearGradient id="SVGID_00000031887464472416273750000003970848056268329657_" gradientUnits="userSpaceOnUse" x1="2734.4807" y1="1536.3245" x2="2186.439" y2="2104.4773">
				<stop  offset="0" style="stop-color:#F9B776"/>
				<stop  offset="1" style="stop-color:#F47960"/>
			</linearGradient>
			<path style="fill:url(#SVGID_00000031887464472416273750000003970848056268329657_);" d="M2353.563,1855.407l-28.648,128.679
				c-2.743,11.334,7.59,9.479,19.049,7.319c18.766-3.538,42.953-10.825,51.039-25.427c0.823-1.486,1.234-3.166,1.466-4.849
				l12.308-89.229c0.976-7.079-2.851-13.95-9.383-16.847l-23.75-10.531C2366.5,1840.467,2355.916,1845.685,2353.563,1855.407z"/>
			<g>
				
					<linearGradient id="SVGID_00000130638906589327959770000011770618674206792631_" gradientUnits="userSpaceOnUse" x1="-3663.0437" y1="1345.2346" x2="-3475.4583" y2="1011.3956" gradientTransform="matrix(-0.9809 -0.1943 -0.1943 0.9809 -900.3181 -99.2406)">
					<stop  offset="0" style="stop-color:#F9B776"/>
					<stop  offset="1" style="stop-color:#F47960"/>
				</linearGradient>
				<path style="fill:url(#SVGID_00000130638906589327959770000011770618674206792631_);" d="M2408.434,1738.103
					c0,0,30.499,20.645,43.604,73.22s-8.192,71.434-30.023,70.278c-21.831-1.156-53.484-7.907-80.909-45.625
					S2368.468,1712.876,2408.434,1738.103z"/>
				
					<linearGradient id="SVGID_00000073716480319041956180000012892195019933098166_" gradientUnits="userSpaceOnUse" x1="-3622.7019" y1="1054.5139" x2="-3528.9092" y2="1289.7905" gradientTransform="matrix(-0.9809 -0.1943 -0.1943 0.9809 -900.3181 -99.2406)">
					<stop  offset="0" style="stop-color:#2B3582"/>
					<stop  offset="1" style="stop-color:#150E42"/>
				</linearGradient>
				<path style="fill:url(#SVGID_00000073716480319041956180000012892195019933098166_);" d="M2368.762,1814.771
					c0,0-11.175-75.335,51.373-63.812l12.647,13.167c0,0,30.615-34.478-3.265-60.541s-80.895-19.388-106.906,28.059
					c-26.011,47.447-35.452,80.788-13.65,110.271c21.802,29.483,38.201,4.197,38.201,4.197s-9.999-25.518-1.702-36.468
					c8.296-10.95,19,6.368,19,6.368L2368.762,1814.771z"/>
				
					<linearGradient id="SVGID_00000091738096324183152960000000653242711577919914_" gradientUnits="userSpaceOnUse" x1="-3629.8979" y1="1373.1648" x2="-3442.3125" y2="1039.326" gradientTransform="matrix(-0.9809 -0.1943 -0.1943 0.9809 -900.3181 -99.2406)">
					<stop  offset="0" style="stop-color:#F9B776"/>
					<stop  offset="1" style="stop-color:#F47960"/>
				</linearGradient>
				<path style="fill:url(#SVGID_00000091738096324183152960000000653242711577919914_);" d="M2365.8,1827.927
					c0,0-5.517-38.76-25.313-27.679s7.135,36.207,17.931,44.756L2365.8,1827.927z"/>
			</g>
			<g>
				
					<linearGradient id="SVGID_00000013909722279767507070000013060180409078298263_" gradientUnits="userSpaceOnUse" x1="2885.3323" y1="1321.8467" x2="2449.5583" y2="2374.4067">
					<stop  offset="0" style="stop-color:#F9B776"/>
					<stop  offset="1" style="stop-color:#F47960"/>
				</linearGradient>
				<path style="fill:url(#SVGID_00000013909722279767507070000013060180409078298263_);" d="M2711.148,1740.667
					c0.423,4.554-16.512,7.701-21.901-11.713c1.481-8.429,4.113-45.339,10.575-51.073c34.42-30.54,95.797-64.897,95.797-64.897
					c6.865,10.48-2.138,17.383-2.138,17.383l-30.638,20.677c3.196,10.586,7.86,19.944,8.388,32.03
					c0.399,9.152-2.981,18.112-9.056,25.054c-6.097,6.967-14.306,15.963-21.705,22.792
					C2726.464,1743.846,2711.148,1740.667,2711.148,1740.667z"/>
				
					<linearGradient id="SVGID_00000139993392559093201030000005393425124485135010_" gradientUnits="userSpaceOnUse" x1="2892.0647" y1="1083.6543" x2="2700.9956" y2="1797.6508">
					<stop  offset="0" style="stop-color:#F9B776"/>
					<stop  offset="1" style="stop-color:#F47960"/>
				</linearGradient>
				<path style="fill:url(#SVGID_00000139993392559093201030000005393425124485135010_);" d="M2727.791,1725.62l-4.683-1.927
					c0.622-1.515,15.325-37.243,22.436-44.675c2.702-2.82,4.007-5.234,3.886-7.181c-0.06-1.054-0.582-2.094-1.572-3.154
					l-24.791,13.258l-10.95,17.145l-4.268-2.729l11.659-18.262l29.039-15.526l1.311,1.067c2.937,2.401,4.455,4.98,4.629,7.89
					c0.214,3.465-1.512,7.061-5.278,10.997C2743.852,1688.12,2731.931,1715.53,2727.791,1725.62z"/>
			</g>
			<g>
				
					<linearGradient id="SVGID_00000132766355304650501060000017480333386746817727_" gradientUnits="userSpaceOnUse" x1="-4755.8721" y1="2100.0054" x2="-4962.0581" y2="2156.5154" gradientTransform="matrix(-0.9988 -0.0494 -0.0494 0.9988 -2345.2417 -55.0328)">
					<stop  offset="0" style="stop-color:#2B3582"/>
					<stop  offset="1" style="stop-color:#150E42"/>
				</linearGradient>
				<path style="fill:url(#SVGID_00000132766355304650501060000017480333386746817727_);" d="M2344.59,2345.265
					c0.196,0.01,0.391,0.015,0.588,0.013l255.929-0.276c6.327-0.005,11.45-5.085,11.443-11.345
					c-0.006-6.262-5.159-11.435-11.469-11.323l-255.929,0.276c-6.327,0.005-11.45,5.085-11.443,11.345
					C2333.717,2340.021,2338.537,2344.969,2344.59,2345.265z"/>
				
					<linearGradient id="SVGID_00000048476277823885129090000004966129840848284332_" gradientUnits="userSpaceOnUse" x1="-4967.501" y1="2145.822" x2="-5112.9395" y2="2299.541" gradientTransform="matrix(-1 0 0 1 -2386.7107 0)">
					<stop  offset="0" style="stop-color:#2B3582"/>
					<stop  offset="1" style="stop-color:#150E42"/>
				</linearGradient>
				<path style="fill:url(#SVGID_00000048476277823885129090000004966129840848284332_);" d="M2831.177,2115.352h-213.14
					c-15.723,0-30.035,8.978-36.741,23.049l-98.534,206.729h264.875c10.133,0,19.236-6.126,22.96-15.449l76.409-191.297
					C2851.421,2127.33,2843.188,2115.352,2831.177,2115.352z"/>
				
					<linearGradient id="SVGID_00000041981374768368160890000008998591424705070492_" gradientUnits="userSpaceOnUse" x1="-5055.6919" y1="2184.2427" x2="-5121.4341" y2="2283.2432" gradientTransform="matrix(-1 0 0 1 -2386.7107 0)">
					<stop  offset="0" style="stop-color:#53D8FF"/>
					<stop  offset="1" style="stop-color:#3840F7"/>
				</linearGradient>
				<path style="fill:url(#SVGID_00000041981374768368160890000008998591424705070492_);" d="M2681.018,2221.348
					c-4.619,14.198-1.207,27.987,7.621,30.799c8.828,2.811,19.728-6.419,24.347-20.618c4.619-14.198,1.207-27.987-7.621-30.799
					C2696.537,2197.919,2685.636,2207.15,2681.018,2221.348z"/>
			</g>
			
				<linearGradient id="SVGID_00000042727354036678614860000016242828407256308664_" gradientUnits="userSpaceOnUse" x1="1962.1105" y1="2324.8652" x2="2411.7371" y2="2136.7695" gradientTransform="matrix(1 0 0 1 36.0251 0)">
				<stop  offset="0" style="stop-color:#F9B776"/>
				<stop  offset="1" style="stop-color:#F47960"/>
			</linearGradient>
			<path style="fill:url(#SVGID_00000042727354036678614860000016242828407256308664_);" d="M2258.268,2033.048
				c-34.92,35.238-79.225,191.429-57.244,217.517c19.355,30.371,85.256,71.712,148.009,71.768h92.587
				c-38.905-41.336-65.692-51.822-97.599-22.916c-25.315-10.817-58.141-52.719-80.051-71.427
				c-8.603-7.345-10.633-19.876-4.879-29.615c17.406-29.466,39.234-59.761,46.175-89.104
				C2306.757,2074.885,2281.312,2035.531,2258.268,2033.048z"/>
		</g>
	</g>
</g>
</svg>
