<?xml version="1.0" encoding="utf-8"?>
<!-- Generator: Adobe Illustrator 27.5.0, SVG Export Plug-In . SVG Version: 6.00 Build 0)  -->
<svg version="1.1" xmlns="http://www.w3.org/2000/svg" xmlns:xlink="http://www.w3.org/1999/xlink" x="0px" y="0px"
	 viewBox="0 0 3710 3710" style="enable-background:new 0 0 3710 3710;" xml:space="preserve">
<g id="Background">
	<g>
		<g>
			<rect style="fill:#FFFFFF;" width="3710" height="3710"/>
		</g>
	</g>
</g>
<g id="Illustration">
	<g>
		<linearGradient id="SVGID_1_" gradientUnits="userSpaceOnUse" x1="3578.2922" y1="4050.1489" x2="1144.3247" y2="1027.314">
			<stop  offset="0" style="stop-color:#B37CFF"/>
			<stop  offset="1" style="stop-color:#F895E7"/>
		</linearGradient>
		<path style="opacity:0.3;fill:url(#SVGID_1_);" d="M2908.692,2858.052c-55.907,58.857-108.806,96.813-150.601,126.801
			c-491.285,352.503-1072.606,249.75-1196.153,224.657c-182.44-37.055-535.093-108.68-790.055-408.51
			c-385.736-453.618-325.671-1168.279-26.468-1640.037c54.729-86.293,343.823-565.237,931.405-642.044
			c355.598-46.483,770.112,47.268,1070.291,298.758C3377.214,1345.577,3332.357,2412.031,2908.692,2858.052z"/>
		
			<linearGradient id="SVGID_00000139992051269224850460000004045517689996692878_" gradientUnits="userSpaceOnUse" x1="186.3506" y1="2280.0977" x2="1818.6232" y2="2280.0977" gradientTransform="matrix(0.8822 -0.4708 0.4708 0.8822 483.4548 -70.4819)">
			<stop  offset="0" style="stop-color:#B37CFF"/>
			<stop  offset="1" style="stop-color:#F895E7"/>
		</linearGradient>
		<path style="fill:url(#SVGID_00000139992051269224850460000004045517689996692878_);" d="M2660.781,1156.048
			c54.91-75.139,339.354-2.452,422.618-181.551l-78.608-182.984c0,0-164.983,186.401-274.129,203.059
			c-109.146,16.658-94.737-53.287-39.166-91.172c55.568-37.884,246.029-75.705,271.685-154.615c0,0,19.858-62.652-64.996-72.09
			c-84.854-9.436-145.06-146.426-140.26-211.613c0,0-26.811,27.454-116.682,60.948c-89.872,33.493-182.725,60.775-158.914,144.04
			c23.808,83.265,95.862,176.214,56.031,211.681c-39.832,35.465-206.302-106.353-136.273-263.806c0,0-147,42.372-170.407,84.027
			c-23.407,41.653-2.289,133.538,106.837,205.972c109.129,72.432,137.421,138.291,107.547,164.891
			c-29.874,26.6-314.838-230.818-249.251-355.885c0,0-220.834,180.29-233.867,214.044
			c-13.034,33.753,102.958,154.207,200.348,199.314c97.388,45.109,139.771,143.77,129.452,183.842
			c-10.32,40.072-86.819-73.911-145.529-103.757c-58.71-29.847-227.68-241.578-227.68-241.578s6.992,37.644-58.469,109.589
			c-65.462,71.943-131.209,228.678-80.248,261.854c50.964,33.174,322.7,142.298,390.669,204.379
			c67.97,62.081,109.358,126.378,56.023,119.724c-53.338-6.653-142.284-85.518-222.723-123.21
			c-80.436-37.693-299.184-108.925-306.988-169.819c0,0-120.786,231.583,34.267,421.595c0,0,125.916,36.736,245.025,4.219
			c119.111-32.519,170.592-40.868,194.983-5.456c24.389,35.413-58.082,57.074-132.808,75.409
			c-74.725,18.333-247.633,64.49-294.617,29.901c0,0,250.078,272.349,462.258,136.009
			c198.987-127.862,202.791-165.143,202.497-169.285c2.199,15.313,72.681,477.889,533.903,227.746
			c0,0-121.203,27.643-172.362-38.032c-51.158-65.674-190.848-113.113-149.295-155.252
			c41.554-42.139,226.812,196.829,347.678,157.717c120.867-39.114,208.327-212.259,150.573-339.932c0,0-82.07,82.786-207.699,57.399
			c-125.629-25.388-288.07-93.733-195.843-135.418s404.793,83.79,474.407,34.146c69.61-49.643,5.897-343.499,5.897-343.499
			s-34.465,28.572-177.836,76.396c-143.374,47.824-316.26,72.666-300.983,33.454c15.28-39.212,129.27-47.467,230.879-58.701
			c101.609-11.234,216.392-77.847,213.181-132.061c-3.21-54.213-54.11-216.388-54.11-216.388s-171.311,97.703-244.548,149.474
			C2790.009,1232.541,2605.87,1231.187,2660.781,1156.048z M2538.656,1725.866c-122.777,2.141-47.575-69.359,13.621-106.683
			C2598.733,1590.851,2661.431,1723.728,2538.656,1725.866z M2582.259,1496.693c-81.191,3.281-103.729-32.259-68.331-60.286
			C2595.266,1372.01,2663.45,1493.411,2582.259,1496.693z M2599.952,1249.458c-43.91,4.614-61.839-5.075-39.897-50.14
			C2581.996,1154.254,2643.859,1244.846,2599.952,1249.458z"/>
		<g>
			
				<linearGradient id="SVGID_00000106869697367466967670000003303660523729911169_" gradientUnits="userSpaceOnUse" x1="-3401.7954" y1="3929.1238" x2="-2371.8682" y2="2711.939" gradientTransform="matrix(-0.9831 0.183 0.183 0.9831 -2723.3049 -640.4646)">
				<stop  offset="0" style="stop-color:#B37CFF"/>
				<stop  offset="1" style="stop-color:#F895E7"/>
			</linearGradient>
			<path style="fill:url(#SVGID_00000106869697367466967670000003303660523729911169_);" d="M2108.893,3038.786
				c0,0-731.81-1074.973-1558.506-1498.047c-55.573-28.44-120.652,15.581-114.552,77.708
				C476.622,2033.882,715.085,3250.147,2108.893,3038.786z"/>
			<path style="opacity:0.5;fill:#FFFFFF;" d="M1967.333,3008.71c3.82,1.656,1.781,7.362-2.226,6.233
				c-147.752-41.585-753.237-291.977-1237.698-1067.012c-1.556-2.49,2.01-5.028,3.775-2.682
				C861.263,2118.109,1363.292,2746.947,1967.333,3008.71z"/>
		</g>
		<g>
			
				<linearGradient id="SVGID_00000045578125575234600980000012322490211270727586_" gradientUnits="userSpaceOnUse" x1="-3553.4426" y1="645.6902" x2="-3964.0554" y2="1984.2891" gradientTransform="matrix(-1 0 0 1 -2525.084 0)">
				<stop  offset="0" style="stop-color:#CB236D"/>
				<stop  offset="1" style="stop-color:#4C246D"/>
			</linearGradient>
			<path style="fill:url(#SVGID_00000045578125575234600980000012322490211270727586_);" d="M2167.605,2940.35
				c0,0-300.173-1511.209-1005.75-2355.462c-47.431-56.753-138.788-38.89-160.911,31.687
				C853.014,1088.503,549.747,2525.301,2167.605,2940.35z"/>
			<path style="opacity:0.5;fill:#FFFFFF;" d="M2021.876,2838.287c3.527,3.709-1.522,9.186-5.515,5.984
				c-147.203-118.062-712.01-692.38-887.738-1802.2c-0.564-3.565,4.69-4.724,5.56-1.22
				C1198.301,1298.964,1464.168,2251.795,2021.876,2838.287z"/>
		</g>
		<g>
			<g>
				
					<linearGradient id="SVGID_00000163778442223251670670000015218736342523843458_" gradientUnits="userSpaceOnUse" x1="1718.3248" y1="917.2003" x2="2490.6841" y2="917.2003">
					<stop  offset="0" style="stop-color:#2B3582"/>
					<stop  offset="1" style="stop-color:#150E42"/>
				</linearGradient>
				<path style="fill:url(#SVGID_00000163778442223251670670000015218736342523843458_);" d="M1726.849,1248.28
					c-4.528,0-8.267-3.601-8.407-8.159c-0.044-1.471-3.995-148.805,38.07-301.381c24.818-90.021,60.573-164.353,106.269-220.932
					c57.558-71.266,130.99-114.365,218.255-128.104c75.763-11.926,143.238,5.932,200.56,53.08
					c80.077,65.863,139.608,186.461,176.94,358.446c27.658,127.416,32.101,237.222,32.142,238.315
					c0.177,4.645-3.443,8.552-8.088,8.729c-4.699,0.212-8.553-3.447-8.729-8.088c-0.164-4.309-18.599-432.792-202.971-584.415
					c-53.443-43.951-116.43-60.584-187.237-49.439c-83.016,13.068-152.922,54.133-207.779,122.052
					c-44.235,54.771-78.936,127.049-103.138,214.829c-41.397,150.156-37.515,294.951-37.47,296.396
					c0.141,4.645-3.511,8.525-8.155,8.668C1727.023,1248.278,1726.936,1248.28,1726.849,1248.28z"/>
			</g>
			
				<linearGradient id="SVGID_00000127037018385234234710000007688666107278327190_" gradientUnits="userSpaceOnUse" x1="2445.6143" y1="1204.6394" x2="452.9053" y2="5647.8442">
				<stop  offset="0" style="stop-color:#FDF53F"/>
				<stop  offset="1" style="stop-color:#D93C65"/>
			</linearGradient>
			<path style="fill:url(#SVGID_00000127037018385234234710000007688666107278327190_);" d="M1025.119,3080.554l286.256-1974.03
				l1075.356-18.08l346.602,2101.825H1118.234C1060.783,3190.268,1016.735,3138.368,1025.119,3080.554z"/>
			
				<linearGradient id="SVGID_00000146488083757458439650000004601566891975078533_" gradientUnits="userSpaceOnUse" x1="3846.3542" y1="98.0234" x2="2576.0349" y2="2326.6577">
				<stop  offset="0" style="stop-color:#FDF53F"/>
				<stop  offset="1" style="stop-color:#D93C65"/>
			</linearGradient>
			<path style="fill:url(#SVGID_00000146488083757458439650000004601566891975078533_);" d="M2595.581,1106.524l-208.85-18.08
				l346.602,2101.825h207.338c42.037,0,73.453-39.297,64.884-81.159L2595.581,1106.524z"/>
			<g>
				
					<linearGradient id="SVGID_00000029014133535904485760000007086797565157235122_" gradientUnits="userSpaceOnUse" x1="1487.2551" y1="912.6795" x2="2259.6143" y2="912.6795">
					<stop  offset="0" style="stop-color:#2B3582"/>
					<stop  offset="1" style="stop-color:#150E42"/>
				</linearGradient>
				<path style="fill:url(#SVGID_00000029014133535904485760000007086797565157235122_);" d="M1495.779,1243.76
					c-4.528,0-8.267-3.601-8.407-8.159c-0.044-1.471-3.996-148.805,38.07-301.381c24.82-90.021,60.573-164.353,106.269-220.932
					c57.558-71.266,130.99-114.365,218.255-128.104c75.758-11.928,143.24,5.932,200.56,53.079
					c80.079,65.863,139.609,186.463,176.942,358.446c27.656,127.416,32.099,237.222,32.14,238.315
					c0.177,4.645-3.443,8.552-8.088,8.729c-4.686,0.196-8.553-3.447-8.729-8.088c-0.165-4.309-18.597-432.792-202.97-584.416
					c-53.443-43.949-116.438-60.587-187.239-49.439c-83.016,13.068-152.922,54.133-207.778,122.052
					c-44.235,54.771-78.935,127.049-103.136,214.829c-41.399,150.156-37.517,294.951-37.472,296.396
					c0.141,4.645-3.511,8.525-8.156,8.668C1495.953,1243.758,1495.866,1243.76,1495.779,1243.76z"/>
			</g>
		</g>
		<g>
			
				<linearGradient id="SVGID_00000129173859694412650920000014132672695896929938_" gradientUnits="userSpaceOnUse" x1="2551.677" y1="2182.3721" x2="2627.4788" y2="4475.3564">
				<stop  offset="0" style="stop-color:#CB236D"/>
				<stop  offset="1" style="stop-color:#4C246D"/>
			</linearGradient>
			<path style="fill:url(#SVGID_00000129173859694412650920000014132672695896929938_);" d="M2302.296,2256.761
				c29.96-20.599,63.085-36.129,98.203-45.687c13.19-3.59,84.412,17.11,128.439,16.098c60.435-1.389,121.952-28.893,171.769-16.478
				c49.484,12.332,89.984,28.438,113.369,45.07c69.996,49.785,111.094,142.614,136.138,234.565
				c-47.423,48.679-107.101,70.315-107.101,70.315l-11.028,446.951l-264.29,135.221l-301.656-151.448l10.806-436.779
				c0,0-95.792-44.609-102.82-60.836C2167.096,2477.528,2217.783,2314.869,2302.296,2256.761z"/>
			
				<linearGradient id="SVGID_00000016789962220187711710000008225256134306860965_" gradientUnits="userSpaceOnUse" x1="2140.9949" y1="2382.7036" x2="2650.6851" y2="3613.9031">
				<stop  offset="0" style="stop-color:#F9B776"/>
				<stop  offset="1" style="stop-color:#F47960"/>
			</linearGradient>
			<path style="fill:url(#SVGID_00000016789962220187711710000008225256134306860965_);" d="M2178.586,2491.803
				c0,0-86.391,347.121,206.328,493.386c60.78-8.075-4.571-100.254-4.571-100.254s-103.159-47.954-64.961-344.824
				C2280.214,2511.175,2178.586,2491.803,2178.586,2491.803z"/>
			
				<linearGradient id="SVGID_00000150073795261243335030000010169664676141935013_" gradientUnits="userSpaceOnUse" x1="-7161.8252" y1="2387.4658" x2="-6649.4014" y2="3625.2695" gradientTransform="matrix(-1 0 0 1 -4167.0742 0)">
				<stop  offset="0" style="stop-color:#F9B776"/>
				<stop  offset="1" style="stop-color:#F47960"/>
			</linearGradient>
			<path style="fill:url(#SVGID_00000150073795261243335030000010169664676141935013_);" d="M2944.041,2491.803
				c0,0,59.893,371.489-192.789,502.144c-60.781-8.075-8.968-109.012-8.968-109.012s102.507-50.483,88.99-325.018
				C2866.442,2530.982,2944.041,2491.803,2944.041,2491.803z"/>
			
				<linearGradient id="SVGID_00000032615543397194460270000015720825845430339235_" gradientUnits="userSpaceOnUse" x1="2577.6179" y1="2272.8601" x2="2527.2266" y2="3374.2937">
				<stop  offset="0" style="stop-color:#53D8FF"/>
				<stop  offset="1" style="stop-color:#3840F7"/>
			</linearGradient>
			<path style="fill:url(#SVGID_00000032615543397194460270000015720825845430339235_);" d="M2820.433,3018.942h-535.991
				c-11.981,0-21.783-9.802-21.783-21.783v-347.831c0-11.981,9.802-21.783,21.783-21.783h535.991
				c11.981,0,21.783,9.802,21.783,21.783v347.832C2842.216,3009.14,2832.414,3018.942,2820.433,3018.942z"/>
			<g>
				
					<linearGradient id="SVGID_00000023976600122959828330000008608824662198680982_" gradientUnits="userSpaceOnUse" x1="3303.6375" y1="3193.7002" x2="1849.7305" y2="3176.2537">
					<stop  offset="0" style="stop-color:#2B3582"/>
					<stop  offset="1" style="stop-color:#150E42"/>
				</linearGradient>
				<path style="fill:url(#SVGID_00000023976600122959828330000008608824662198680982_);" d="M3102.99,3136.641
					c-2.077-0.585-4.276-1.138-6.572-1.665c-66.326-15.223-219.62-7.038-219.62-7.038l-6.235,16.885l-10.327,83.927
					c0,0,145.987,26.314,217.947,26.25c7.343-0.006,14.057-1.108,20.191-3.017
					C3152.358,3235.181,3158.749,3152.326,3102.99,3136.641z"/>
				
					<linearGradient id="SVGID_00000109017395912063832450000008161528503470463107_" gradientUnits="userSpaceOnUse" x1="3041.6887" y1="2694.2622" x2="2751.989" y2="3478.9458">
					<stop  offset="0" style="stop-color:#F9B776"/>
					<stop  offset="1" style="stop-color:#F47960"/>
				</linearGradient>
				<path style="fill:url(#SVGID_00000109017395912063832450000008161528503470463107_);" d="M2832.751,3123.212l25.958,1.107
					c13.946,0.595,27.089,7.391,36.467,18.855c9.377,11.465,14.199,26.632,13.379,42.084c-0.654,12.32-5.709,23.843-14.046,32.017
					c-8.337,8.175-19.268,12.326-30.374,11.536l-39.717-2.827L2832.751,3123.212z"/>
			</g>
			<g>
				
					<linearGradient id="SVGID_00000154386969698236717340000000780964891873814452_" gradientUnits="userSpaceOnUse" x1="2355.8557" y1="3188.3225" x2="902.1667" y2="3170.8787">
					<stop  offset="0" style="stop-color:#2B3582"/>
					<stop  offset="1" style="stop-color:#150E42"/>
				</linearGradient>
				<path style="fill:url(#SVGID_00000154386969698236717340000000780964891873814452_);" d="M2185.442,3143.676l-5.812-17.07
					c0,0-153.032-12.886-219.711,0.297c-2.307,0.457-4.52,0.941-6.611,1.461c-56.128,13.969-51.807,96.988,1.736,115.439
					c6.084,2.097,12.77,3.404,20.108,3.636c71.931,2.272,218.518-19.552,218.518-19.552L2185.442,3143.676z"/>
				
					<linearGradient id="SVGID_00000115510988590982351390000003754872334521591952_" gradientUnits="userSpaceOnUse" x1="2461.2695" y1="2457.7971" x2="2171.4172" y2="3242.8936">
					<stop  offset="0" style="stop-color:#F9B776"/>
					<stop  offset="1" style="stop-color:#F47960"/>
				</linearGradient>
				<path style="fill:url(#SVGID_00000115510988590982351390000003754872334521591952_);" d="M2223.778,3123.234l-25.976,0.31
					c-13.956,0.167-27.264,6.557-36.923,17.729c-9.66,11.172-14.858,26.186-14.424,41.657c0.347,12.336,5.113,24.009,13.242,32.437
					c8.13,8.427,18.954,12.913,30.074,12.463l39.772-1.607L2223.778,3123.234z"/>
			</g>
			
				<linearGradient id="SVGID_00000147908373297309637400000003408902580270897829_" gradientUnits="userSpaceOnUse" x1="1408.4946" y1="3581.0989" x2="3475.9587" y2="2735.1001">
				<stop  offset="0" style="stop-color:#CE1567"/>
				<stop  offset="1" style="stop-color:#7A1DBC"/>
			</linearGradient>
			<path style="fill:url(#SVGID_00000147908373297309637400000003408902580270897829_);" d="M3114.966,2871.87
				c-30.078-69.227-103.645-80.464-166.26-48.096c-1.09,1.431-397.634,204.666-747.34,293.736
				c10.011,32.095,15.159,66.246,16.281,99.814c0.202,7.478,0.077,14.854-0.361,22.132
				c268.173-13.774,559.22-103.209,809.319-181.806C3104.16,3032.64,3148.304,2948.597,3114.966,2871.87z"/>
			
				<linearGradient id="SVGID_00000091706536024572626060000014014560549314645391_" gradientUnits="userSpaceOnUse" x1="1737.3979" y1="2264.2522" x2="2702.2136" y2="3357.3933">
				<stop  offset="0" style="stop-color:#CE1567"/>
				<stop  offset="1" style="stop-color:#7A1DBC"/>
			</linearGradient>
			<path style="fill:url(#SVGID_00000091706536024572626060000014014560549314645391_);" d="M2834.657,3222.583
				c-1.048-38.691,6.474-74.71,22.567-108.055c0.46-1.528,1.01-2.994,1.497-4.503c-19.97-6.184-45.768-14.564-79.658-26.061
				c-248.325-84.984-437.769-170.793-618.572-269.574c-70.239-38.375-150.102-12.656-172.586,70.455
				c-20.073,74.194,24.005,137.536,90.903,159.797c200.141,66.6,95.934,48.1,161.299,69.137
				c175.543,54.282,393.986,103.727,594.966,117.228C2834.924,3228.197,2834.751,3225.385,2834.657,3222.583z"/>
			
				<linearGradient id="SVGID_00000065783114628873591190000008372658792877833140_" gradientUnits="userSpaceOnUse" x1="2553.8828" y1="2496.2869" x2="2547.2002" y2="1914.8752">
				<stop  offset="0" style="stop-color:#F9B776"/>
				<stop  offset="1" style="stop-color:#F47960"/>
			</linearGradient>
			<path style="fill:url(#SVGID_00000065783114628873591190000008372658792877833140_);" d="M2400.499,2211.074
				c0,0,26.706,115.734,156.369,113.331c132.066-2.403,143.839-113.71,143.839-113.71l-86.268-18.459l-7.209-96.124l-129.767,9.612
				l-2.403,91.318L2400.499,2211.074z"/>
			<g>
				
					<linearGradient id="SVGID_00000119114420703804708040000006961282647839682714_" gradientUnits="userSpaceOnUse" x1="2015.7775" y1="1437.6907" x2="2732.6487" y2="2683.9448" gradientTransform="matrix(0.9977 0.0681 -0.0681 0.9977 345.4232 35.2827)">
					<stop  offset="0" style="stop-color:#2B3582"/>
					<stop  offset="1" style="stop-color:#150E42"/>
				</linearGradient>
				<path style="fill:url(#SVGID_00000119114420703804708040000006961282647839682714_);" d="M2387.181,1753.156
					c0,0-14.764,62.139-54.522,27.853c-39.759-34.287-88.921-85.002-144.515-41.436c-55.596,43.566,10.351,79.64,10.351,79.64
					s-25.339-12.968-44.413,7.506c-5.483,5.884-14.24,6.967-20.77,2.272c-6.158-4.43-14.665-6.8-24.933-0.141
					c-8.078,5.239-30.558,56.235-10.009,146.659c12.238,53.85,47.825,208.963,169.64,238.431
					c79.539,19.242,147.458-26.804,153.425-30.985c66.717-46.734,79.426-118.222,81.503-131.239
					c-3.723-14.342-21.265-87.616,21.249-147.13c9.666-13.531,37.836-48.462,81.287-54.952c9.347-1.396,19.085,0.453,32.64,4.842
					c0,0,11.424,63.926,53.684,61.549c0,0-4.166-16.071,12.263-25.473c15.744-9.012,53.356-55.195-10.485-96.016
					c-5.068-3.241-7.719-9.119-7.183-15.111c1.728-19.331-2.625-63.595-67.91-99.942c-82.969-46.189-140.454-36.994-171.184,8.894
					c-2.229,3.327-5.735,5.579-9.655,6.404C2424.468,1697.563,2394.293,1708.743,2387.181,1753.156z"/>
				
					<linearGradient id="SVGID_00000012454504596208872870000015158981310188363138_" gradientUnits="userSpaceOnUse" x1="2437.198" y1="1496.2886" x2="3154.0815" y2="2742.5642">
					<stop  offset="0" style="stop-color:#2B3582"/>
					<stop  offset="1" style="stop-color:#150E42"/>
				</linearGradient>
				<path style="fill:url(#SVGID_00000012454504596208872870000015158981310188363138_);" d="M2687.655,1850.567
					c0,0,31.499,0,36.75,47.25c5.25,47.25-52.5,68.25-52.5,68.25l-31.5-5.249l15.75-99.75L2687.655,1850.567z"/>
				
					<linearGradient id="SVGID_00000179620770733565167880000006857760427497394860_" gradientUnits="userSpaceOnUse" x1="2323.9763" y1="1980.5867" x2="2365.1038" y2="1366.4237" gradientTransform="matrix(0.9977 0.0681 -0.0681 0.9977 345.4232 35.2827)">
					<stop  offset="0" style="stop-color:#F9B776"/>
					<stop  offset="1" style="stop-color:#F47960"/>
				</linearGradient>
				<path style="fill:url(#SVGID_00000179620770733565167880000006857760427497394860_);" d="M2410.263,1954.696
					c0,0,20.704,159.279,113.554,186.665c92.852,27.385,134.287-117.129,140.24-127.247c0,0,20.236,11.906,26.904-8.689
					c6.668-20.594,36.431-71.184-10.71-74.401c0,0,14.051-51.664,0.125-78.925c-13.927-27.262-41.064-92.261-110.229-81.194
					C2500.983,1781.971,2415.625,1876.128,2410.263,1954.696z"/>
				
					<linearGradient id="SVGID_00000111170897532504177440000007620901970784164997_" gradientUnits="userSpaceOnUse" x1="2306.3425" y1="1493.6093" x2="3023.2681" y2="2739.9583" gradientTransform="matrix(0.9998 0.0173 -0.0173 0.9998 87.8913 6.0619)">
					<stop  offset="0" style="stop-color:#2B3582"/>
					<stop  offset="1" style="stop-color:#150E42"/>
				</linearGradient>
				<path style="fill:url(#SVGID_00000111170897532504177440000007620901970784164997_);" d="M2673.304,1781.051
					c-5.226-2.98-8.172-8.716-7.941-14.726c0.744-19.393-5.851-63.38-72.898-96.364c-85.208-41.916-142.152-29.813-170.511,17.577
					c-2.057,3.436-5.445,5.863-9.317,6.886c-13.021,3.448-42.589,16.145-47.436,60.862c0,0-5.254,28.349-21.276,37.168
					c38.346,31.873,55.36,143.656,56.136,145.153c12.01,2.916,56.282,9.213,109.662-38.044
					c63.992-56.65,69.423-67.058,111.235-55.832c0,0,14.656,63.264,56.74,58.743c0,0-4.977-15.839,10.954-26.063
					C2703.918,1866.61,2739.136,1818.577,2673.304,1781.051z"/>
				
					<linearGradient id="SVGID_00000008134457687015378980000002464444400083441081_" gradientUnits="userSpaceOnUse" x1="2172.739" y1="1970.4603" x2="2213.8665" y2="1356.3003" gradientTransform="matrix(0.9977 0.0681 -0.0681 0.9977 345.4232 35.2827)">
					<stop  offset="0" style="stop-color:#F9B776"/>
					<stop  offset="1" style="stop-color:#F47960"/>
				</linearGradient>
				<path style="fill:url(#SVGID_00000008134457687015378980000002464444400083441081_);" d="M2420.381,1960.649
					c0,0,2.145-31.427-24.402-27.977c-26.547,3.451-0.07,82.063,24.367,69.008L2420.381,1960.649z"/>
			</g>
		</g>
	</g>
</g>
</svg>
